<svg width="343" height="70" viewBox="0 0 343 70" fill="none" xmlns="http://www.w3.org/2000/svg">
<path d="M43.5824 34.9091C43.5824 39.6051 42.6693 43.5665 40.843 46.7933C39.0168 50.0064 36.5521 52.4437 33.4489 54.1051C30.3456 55.7528 26.8854 56.5767 23.0682 56.5767C19.2235 56.5767 15.7495 55.746 12.6463 54.0845C9.55682 52.4093 7.09896 49.9652 5.27273 46.7521C3.46023 43.5253 2.55398 39.5777 2.55398 34.9091C2.55398 30.2131 3.46023 26.2585 5.27273 23.0455C7.09896 19.8187 9.55682 17.3814 12.6463 15.7337C15.7495 14.0722 19.2235 13.2415 23.0682 13.2415C26.8854 13.2415 30.3456 14.0722 33.4489 15.7337C36.5521 17.3814 39.0168 19.8187 40.843 23.0455C42.6693 26.2585 43.5824 30.2131 43.5824 34.9091ZM31.8011 34.9091C31.8011 32.3826 31.4647 30.2543 30.7919 28.5241C30.1328 26.7803 29.151 25.4621 27.8466 24.5696C26.5559 23.6634 24.9631 23.2102 23.0682 23.2102C21.1733 23.2102 19.5736 23.6634 18.2692 24.5696C16.9785 25.4621 15.9967 26.7803 15.3239 28.5241C14.6648 30.2543 14.3352 32.3826 14.3352 34.9091C14.3352 37.4356 14.6648 39.5708 15.3239 41.3146C15.9967 43.0447 16.9785 44.3629 18.2692 45.2692C19.5736 46.1617 21.1733 46.608 23.0682 46.608C24.9631 46.608 26.5559 46.1617 27.8466 45.2692C29.151 44.3629 30.1328 43.0447 30.7919 41.3146C31.4647 39.5708 31.8011 37.4356 31.8011 34.9091ZM48.8809 56V13.8182H67.0882C70.2189 13.8182 72.9583 14.388 75.3063 15.5277C77.6543 16.6674 79.4805 18.3082 80.785 20.4503C82.0894 22.5923 82.7417 25.16 82.7417 28.1534C82.7417 31.1742 82.0688 33.7214 80.7232 35.7947C79.3913 37.8681 77.517 39.4335 75.1003 40.4908C72.6974 41.5481 69.8894 42.0767 66.6763 42.0767H55.8013V33.179H64.3695C65.7151 33.179 66.8617 33.0142 67.8091 32.6847C68.7703 32.3414 69.5049 31.799 70.013 31.0575C70.5347 30.3161 70.7956 29.348 70.7956 28.1534C70.7956 26.9451 70.5347 25.9633 70.013 25.2081C69.5049 24.4392 68.7703 23.8762 67.8091 23.5192C66.8617 23.1484 65.7151 22.9631 64.3695 22.9631H60.3326V56H48.8809ZM73.5968 36.6392L84.1422 56H71.7019L61.4036 36.6392H73.5968ZM98.5804 56H86.2225L100.146 13.8182H115.799L129.722 56H117.365L108.137 25.4347H107.808L98.5804 56ZM96.2736 39.358H119.507V47.9261H96.2736V39.358ZM170.282 13.8182V56H160.725L145.484 33.8381H145.237V56H133.785V13.8182H143.507L158.501 35.8977H158.831V13.8182H170.282ZM203.093 27.7415C202.914 27.0137 202.633 26.3752 202.248 25.826C201.864 25.263 201.383 24.7893 200.806 24.4048C200.243 24.0066 199.584 23.7114 198.829 23.5192C198.088 23.3132 197.271 23.2102 196.378 23.2102C194.456 23.2102 192.815 23.6702 191.456 24.5902C190.11 25.5102 189.08 26.8352 188.366 28.5653C187.666 30.2955 187.316 32.3826 187.316 34.8267C187.316 37.2983 187.652 39.4129 188.325 41.1705C188.998 42.928 190 44.2737 191.332 45.2074C192.664 46.1411 194.319 46.608 196.296 46.608C198.04 46.608 199.488 46.3539 200.642 45.8459C201.809 45.3378 202.681 44.617 203.257 43.6832C203.834 42.7495 204.123 41.651 204.123 40.3878L206.1 40.5938H196.461V32.4375H215.162V38.2869C215.162 42.1316 214.345 45.4202 212.711 48.1527C211.091 50.8714 208.853 52.9586 205.997 54.4141C203.154 55.8558 199.893 56.5767 196.213 56.5767C192.108 56.5767 188.503 55.7048 185.4 53.9609C182.297 52.2171 179.873 49.7318 178.13 46.505C176.4 43.2782 175.534 39.4403 175.534 34.9915C175.534 31.5038 176.063 28.4143 177.12 25.723C178.191 23.0317 179.674 20.7592 181.569 18.9055C183.464 17.0381 185.654 15.6307 188.14 14.6832C190.625 13.7221 193.289 13.2415 196.131 13.2415C198.63 13.2415 200.951 13.5985 203.093 14.3125C205.248 15.0128 207.15 16.0151 208.798 17.3196C210.459 18.6103 211.798 20.1413 212.814 21.9126C213.83 23.6839 214.448 25.6269 214.668 27.7415H203.093ZM220.502 56V13.8182H250.903V23.0455H231.954V30.2955H249.337V39.5227H231.954V46.7727H250.82V56H220.502ZM268.137 56V13.8182H286.344C289.475 13.8182 292.214 14.4361 294.562 15.6719C296.91 16.9077 298.736 18.6446 300.041 20.8828C301.345 23.121 301.998 25.7367 301.998 28.7301C301.998 31.7509 301.325 34.3667 299.979 36.5774C298.647 38.7881 296.773 40.4908 294.356 41.6854C291.953 42.88 289.145 43.4773 285.932 43.4773H275.057V34.5795H283.625C284.971 34.5795 286.118 34.3461 287.065 33.8793C288.026 33.3987 288.761 32.719 289.269 31.8402C289.791 30.9614 290.051 29.9247 290.051 28.7301C290.051 27.5218 289.791 26.4919 289.269 25.6406C288.761 24.7756 288.026 24.1165 287.065 23.6634C286.118 23.1965 284.971 22.9631 283.625 22.9631H279.588V56H268.137ZM306.199 56V13.8182H324.407C327.537 13.8182 330.277 14.388 332.625 15.5277C334.973 16.6674 336.799 18.3082 338.103 20.4503C339.408 22.5923 340.06 25.16 340.06 28.1534C340.06 31.1742 339.387 33.7214 338.042 35.7947C336.71 37.8681 334.835 39.4335 332.419 40.4908C330.016 41.5481 327.208 42.0767 323.995 42.0767H313.12V33.179H321.688C323.033 33.179 324.18 33.0142 325.127 32.6847C326.089 32.3414 326.823 31.799 327.331 31.0575C327.853 30.3161 328.114 29.348 328.114 28.1534C328.114 26.9451 327.853 25.9633 327.331 25.2081C326.823 24.4392 326.089 23.8762 325.127 23.5192C324.18 23.1484 323.033 22.9631 321.688 22.9631H317.651V56H306.199ZM330.915 36.6392L341.461 56H329.02L318.722 36.6392H330.915Z" fill="white"/>
</svg>
